<svg xmlns="http://www.w3.org/2000/svg" viewBox="0 0 482.74 121.02"><defs><style>.cls-1{font-size:120px;font-family:PassionOne-Regular, Passion;font-weight:700;}.cls-1,.cls-2{fill:#fff;}.cls-3{fill:none;stroke:#fff;stroke-miterlimit:10;stroke-width:5px;}</style></defs><title>logo-white</title><g id="Lag_1" data-name="Lag 1"><text class="cls-1" transform="translate(142.19 97.26)">freePee</text></g><g id="Lag_2" data-name="Lag 2"><g id="_Group_" data-name="&lt;Group&gt;"><g id="_Group_2" data-name="&lt;Group&gt;"><path id="_Path_" data-name="&lt;Path&gt;" class="cls-2" d="M73.15,206.77l6.73-20.35c.79-2.38,1.86-3.19,4.37-3.2q7.18,0,14.36,0a3.92,3.92,0,0,1,4.15,2.91q3.25,9.85,6.46,19.71a3.34,3.34,0,0,1-1.81,4.37,3.26,3.26,0,0,1-4.29-1.93,39.82,39.82,0,0,0-1.84-4.22c0,.58-.08,1.17-.08,1.75q0,13.6,0,27.2c0,2.81-1.78,4.78-4.29,4.84s-4.55-1.93-4.56-4.83c0-5.6,0-11.21,0-16.81,0-.42,0-.85,0-1.37H90.4c0,.44,0,.89,0,1.34,0,5.53,0,11.05,0,16.58a7,7,0,0,1-.86,3.19,4.12,4.12,0,0,1-4.69,1.74,4.34,4.34,0,0,1-3.25-4c-.07-1.28,0-2.57,0-3.85q0-12.08,0-24.17,0-.84,0-1.68l-.3,0c-.54,1.43-1,2.88-1.63,4.28a3.17,3.17,0,0,1-5.15,1.35,9.14,9.14,0,0,1-1.3-2.14Q73.15,207.12,73.15,206.77Z" transform="translate(-61.84 -141.46)"/><path id="_Path_2" data-name="&lt;Path&gt;" class="cls-2" d="M91.51,180.93a9.39,9.39,0,1,1,9.44-9.41A9.44,9.44,0,0,1,91.51,180.93Z" transform="translate(-61.84 -141.46)"/></g><g id="_Group_3" data-name="&lt;Group&gt;"><path id="_Path_3" data-name="&lt;Path&gt;" class="cls-2" d="M142.47,238.07c-2-.75-2.73-2.29-2.7-4.37.05-4.36,0-8.72,0-13.07,0-.92-.27-1.26-1.19-1.18a22.9,22.9,0,0,1-2.57,0,2.27,2.27,0,0,1-2.36-2.94c.48-2.72,1-5.43,1.47-8.15a1.54,1.54,0,0,0-.09-.89l-.31.58c-1,1.9-2.74,2.59-4.45,1.79s-2.34-2.66-1.49-4.67c1.45-3.43,2.94-6.86,4.41-10.28,1.21-2.82,2.46-5.62,3.63-8.46a4.35,4.35,0,0,1,4.55-3c4.16.1,8.33,0,12.49,0,2.62,0,3,.26,4,2.66q4.2,10.23,8.39,20.47v.7c-.08.22-.17.43-.24.65a3.22,3.22,0,0,1-2.8,2.32c-1.34.16-2.15-.7-2.77-1.76-.27-.46-.53-.93-.79-1.39.34,3.07.81,6.06,1.3,9.05.38,2.33-.47,3.33-2.85,3.34h-3.54v1.48c0,4.24,0,8.48,0,12.73,0,2.12-.64,3.72-2.8,4.41h-1.4c-2.07-.81-2.68-2.4-2.64-4.51.08-4.35,0-8.7,0-13.06,0-.86-.21-1.25-1.19-.87,0,.45,0,.87,0,1.29,0,4.24,0,8.47,0,12.71,0,2.1-.61,3.72-2.75,4.45Z" transform="translate(-61.84 -141.46)"/><path id="_Path_4" data-name="&lt;Path&gt;" class="cls-2" d="M147.84,161.93a10.66,10.66,0,0,1,5.74,2.57,9.12,9.12,0,0,1,2.55,10,9,9,0,0,1-7.76,6.35A9.45,9.45,0,1,1,146,162.11a1.73,1.73,0,0,0,.41-.18Z" transform="translate(-61.84 -141.46)"/></g><path id="_Path_5" data-name="&lt;Path&gt;" class="cls-2" d="M117.35,199.93q0-17.57,0-35.15c0-1.7.79-2.41,2.36-2.2a1.69,1.69,0,0,1,1.59,1.59,6.56,6.56,0,0,1,0,.93q0,34.91,0,69.82c0,2-.74,2.72-2.45,2.49a1.58,1.58,0,0,1-1.5-1.52,11.48,11.48,0,0,1,0-1.17Q117.35,217.33,117.35,199.93Z" transform="translate(-61.84 -141.46)"/><rect id="_Rectangle_" data-name="&lt;Rectangle&gt;" class="cls-3" x="2.5" y="3.54" width="110" height="110" rx="12" ry="12"/></g></g></svg>