<svg id="Layer_1" data-name="Layer 1" xmlns="http://www.w3.org/2000/svg" viewBox="0 0 381.5 432.67"><defs><style>.cls-1{fill:#0fb5c2;}.cls-2{fill:#fff;}</style></defs><title>handicap</title><rect class="cls-1" width="381.5" height="381.5" rx="62.73" ry="62.73"/><polygon class="cls-1" points="242.8 381.5 190.75 432.67 139.77 381.69 242.8 381.5"/><circle class="cls-2" cx="190.75" cy="89.23" r="30.02"/><path class="cls-2" d="M249,249.59v89s.5,7.5,11,9.5,71.5,0,71.5,0l31.5,66.5a8.11,8.11,0,0,0,2.13,3.56c4.24,4.22,12.39,2,17.87.44a65.89,65.89,0,0,0,25.88-14.5c4.79-4.37,6.52-9.82,4.69-13-2.12-3.67-8.78-4.35-11.84-2.94l-18.23,8.41-29-63.5s-3-8.5-15.5-8.5H282l-1-26,46-.5s8-1,8-11.5-13.5-10-13.5-10l-41-.5v-23.5S263.5,260.09,249,249.59Z" transform="translate(-76.87 -129.33)"/><path class="cls-2" d="M242.15,285.61C217,293.46,191.3,319.38,191.41,353c.12,38.69,34.4,69.59,70.09,70.09,23.93.33,46.59-13,59.12-32.42l26,12A97.73,97.73,0,1,1,241,258.43l1.19,27.18" transform="translate(-76.87 -129.33)"/><path class="cls-2" d="M242.15,285.61" transform="translate(-76.87 -129.33)"/></svg>