<svg id="Layer_1" data-name="Layer 1" xmlns="http://www.w3.org/2000/svg" viewBox="0 0 381.5 432.67"><defs><style>.cls-1{fill:#0fb5c2;}.cls-2{fill:#fff;}</style></defs><title>pissoir</title><rect class="cls-1" width="381.5" height="381.5" rx="62.73" ry="62.73"/><polygon class="cls-1" points="242.8 381.5 190.75 432.67 139.77 381.69 242.8 381.5"/><g id="_Group_" data-name="&lt;Group&gt;"><path id="_Path_" data-name="&lt;Path&gt;" class="cls-2" d="M201.3,344.81l24.58-74.37c2.87-8.69,6.81-11.66,16-11.71q26.24-.12,52.47,0c7.93,0,12.79,3.42,15.17,10.62q11.89,36,23.62,72c2.31,7.1-.47,13.51-6.62,16s-12.92-.39-15.69-7.06c-2.11-5.08-3.89-10.29-6.73-15.42-.1,2.14-.29,4.27-.29,6.41q0,49.7,0,99.4c0,10.27-6.49,17.47-15.69,17.67-9.6.21-16.62-7.07-16.67-17.64-.1-20.48,0-41,0-61.43,0-1.55,0-3.1,0-5h-7c0,1.62,0,3.26,0,4.91,0,20.19.16,40.39-.14,60.58a25.39,25.39,0,0,1-3.13,11.66c-3.31,5.86-10.71,8.15-17.13,6.36a15.84,15.84,0,0,1-11.88-14.47c-.24-4.68-.12-9.38-.12-14.07q0-44.16,0-88.31,0-3.07,0-6.15l-1.11-.16c-2,5.22-3.78,10.51-5.95,15.66-3.42,8.12-12.71,10.65-18.83,4.92-2.14-2-3.19-5.18-4.74-7.82Q201.3,346.09,201.3,344.81Z" transform="translate(-76.87 -129.33)"/><path id="_Path_2" data-name="&lt;Path&gt;" class="cls-2" d="M268.37,250.41a34.48,34.48,0,0,1-34.83-34c-.23-18.82,15.11-34.34,34.23-34.62s35,15.27,35.1,34.23C302.93,234.83,287.47,250.23,268.37,250.41Z" transform="translate(-76.87 -129.33)"/></g></svg>