<svg id="Layer_1" data-name="Layer 1" xmlns="http://www.w3.org/2000/svg" viewBox="0 0 381.5 432.67"><defs><style>.cls-1{fill:#0fb5c2;}.cls-2{fill:#fff;}</style></defs><title>toilet</title><rect class="cls-1" width="381.5" height="381.5" rx="62.73" ry="62.73"/><polygon class="cls-1" points="242.8 381.5 190.75 432.67 139.77 381.69 242.8 381.5"/><g id="_Group_" data-name="&lt;Group&gt;"><path id="_Path_" data-name="&lt;Path&gt;" class="cls-2" d="M99.09,345.92l25.68-77.7c3-9.08,7.12-12.19,16.69-12.23q27.41-.12,54.82,0c8.28,0,13.36,3.57,15.85,11.1q12.42,37.6,24.68,75.25c2.41,7.41-.49,14.11-6.91,16.7s-13.5-.4-16.39-7.38c-2.2-5.31-4.06-10.75-7-16.11-.11,2.23-.3,4.46-.3,6.69q0,51.93,0,103.85c0,10.73-6.78,18.25-16.39,18.46-10,.22-17.37-7.38-17.42-18.43-.1-21.39,0-42.79,0-64.18,0-1.62,0-3.24,0-5.21h-7.36c0,1.69,0,3.41,0,5.13,0,21.1.17,42.2-.15,63.29a26.53,26.53,0,0,1-3.27,12.18c-3.46,6.12-11.19,8.51-17.9,6.65a16.55,16.55,0,0,1-12.41-15.12c-.25-4.89-.13-9.8-.13-14.7q0-46.13,0-92.26,0-3.21,0-6.42l-1.16-.16c-2.06,5.46-4,11-6.21,16.36-3.57,8.49-13.27,11.13-19.67,5.14-2.24-2.09-3.33-5.41-5-8.17Q99.09,347.26,99.09,345.92Z" transform="translate(-76.87 -129.33)"/><path id="_Path_2" data-name="&lt;Path&gt;" class="cls-2" d="M169.16,247.3a36,36,0,0,1-36.38-35.52c-.24-19.67,15.79-35.88,35.76-36.17s36.6,16,36.67,35.76C205.27,231,189.12,247.11,169.16,247.3Z" transform="translate(-76.87 -129.33)"/></g><g id="_Group_2" data-name="&lt;Group&gt;"><path id="_Path_3" data-name="&lt;Path&gt;" class="cls-2" d="M349.47,465.41c-7.82-2.85-10.41-8.74-10.32-16.68.19-16.64,0-33.28.13-49.91,0-3.52-1-4.8-4.55-4.52a87.41,87.41,0,0,1-9.8,0c-6.76-.22-10.21-4.53-9-11.24,1.85-10.37,3.76-20.73,5.61-31.1a5.89,5.89,0,0,0-.34-3.42l-1.2,2.23c-3.93,7.25-10.47,9.88-17,6.84s-8.93-10.17-5.68-17.82c5.55-13.11,11.21-26.17,16.84-39.25,4.63-10.76,9.39-21.47,13.86-32.3,3.25-7.88,8.47-11.86,17.39-11.64,15.89.39,31.79.11,47.68.11,10,0,11.56,1,15.33,10.16q16,39.06,32,78.16v2.67c-.31.82-.64,1.64-.93,2.47-1.75,5.14-5.38,8.23-10.68,8.87-5.13.62-8.2-2.67-10.59-6.71-1-1.75-2-3.54-3-5.31,1.3,11.72,3.09,23.14,4.94,34.56,1.45,8.89-1.78,12.71-10.89,12.75-4.4,0-8.79,0-13.5,0,0,2.4,0,4,0,5.64,0,16.19-.13,32.39.05,48.58.09,8.11-2.45,14.19-10.69,16.83h-5.35c-7.91-3.09-10.22-9.16-10.07-17.23.3-16.61,0-33.23.13-49.85,0-3.29-.79-4.79-4.56-3.34,0,1.7,0,3.31,0,4.93,0,16.17-.11,32.34,0,48.51.08,8-2.34,14.21-10.51,17Z" transform="translate(-76.87 -129.33)"/><path id="_Path_4" data-name="&lt;Path&gt;" class="cls-2" d="M370,174.75c8.08,1.56,15.84,3.87,21.92,9.83,11,10.76,14.67,23.66,9.75,38.24-4.72,14-14.86,22.22-29.62,24.24a35.61,35.61,0,0,1-40.24-30c-3-21.39,10.19-38.51,31.26-41.67a6.62,6.62,0,0,0,1.58-.68Z" transform="translate(-76.87 -129.33)"/></g><path id="_Path_5" data-name="&lt;Path&gt;" class="cls-2" d="M259.17,319.82q0-67.09,0-134.18c0-6.48,3-9.19,9-8.41,3.64.47,5.55,2.57,6.06,6.06a25,25,0,0,1,.09,3.56q0,133.28,0,266.57c0,7.51-2.84,10.38-9.35,9.49-3.38-.46-5.36-2.38-5.71-5.8a43.81,43.81,0,0,1-.09-4.45Q259.17,386.24,259.17,319.82Z" transform="translate(-76.87 -129.33)"/></svg>